<svg width="18" height="18" fill="none" xmlns="http://www.w3.org/2000/svg"><path d="M9.178 18h-.18a62.508 62.508 0 01-3.982-.11c-1.163-.07-2.224-.472-3.069-1.161-.815-.665-1.372-1.564-1.655-2.672-.246-.965-.26-1.912-.272-2.828C.011 10.572.002 9.793 0 9.002c.002-.796.011-1.574.02-2.231.013-.916.026-1.863.272-2.828.283-1.108.84-2.007 1.655-2.672C2.792.582 3.853.181 5.016.11A62.717 62.717 0 019.002 0a62.975 62.975 0 013.982.11c1.163.07 2.224.472 3.069 1.161.816.665 1.372 1.564 1.655 2.672.246.965.26 1.912.272 2.828.009.657.018 1.435.02 2.227v.004c-.002.791-.011 1.57-.02 2.227-.013.916-.026 1.863-.272 2.828-.283 1.108-.84 2.007-1.655 2.672-.845.689-1.906 1.09-3.069 1.161-1.214.074-2.461.11-3.806.11zm-.18-1.407a61.426 61.426 0 003.9-.107c.88-.053 1.642-.338 2.266-.847.577-.47.975-1.12 1.181-1.93.205-.803.217-1.665.229-2.499.008-.653.018-1.426.02-2.21-.002-.784-.012-1.557-.02-2.21-.012-.834-.024-1.696-.229-2.5-.206-.809-.604-1.458-1.18-1.929-.625-.509-1.387-.794-2.266-.848a61.445 61.445 0 00-3.897-.107 61.273 61.273 0 00-3.9.107c-.88.054-1.642.34-2.266.848-.577.47-.975 1.12-1.181 1.93-.205.803-.217 1.665-.229 2.499-.008.653-.018 1.427-.02 2.212.002.781.012 1.555.02 2.208.012.834.024 1.696.229 2.499.206.81.604 1.46 1.18 1.93.625.509 1.387.794 2.266.847 1.238.076 2.513.11 3.897.107zm-.033-3.198A4.4 4.4 0 014.57 9a4.4 4.4 0 014.395-4.395A4.4 4.4 0 0113.36 9a4.4 4.4 0 01-4.395 4.395zm0-7.383A2.992 2.992 0 005.976 9a2.992 2.992 0 002.989 2.988A2.992 2.992 0 0011.953 9a2.992 2.992 0 00-2.988-2.988zm4.887-2.813a1.055 1.055 0 100 2.11 1.055 1.055 0 000-2.11z" fill="#F8F8F8"/></svg>