<svg width="191" height="48" fill="none" xmlns="http://www.w3.org/2000/svg"><path fill-rule="evenodd" clip-rule="evenodd" d="M29.012.138c0 .076.125.387.279.69.327.649.48 1.54.401 2.33-.048.475-2.852 17.82-2.945 18.217l-.042.178h-4.11c-2.26.002-4.15.028-4.2.06-.05.032-1.233 2.33-2.63 5.108-1.797 3.57-2.555 5.005-2.588 4.895-.026-.085-.424-2.305-.886-4.932-.46-2.627-.873-4.856-.916-4.954l-.077-.177H2.317v.204a.78.78 0 00.159.406c.087.11.234.436.325.723.342 1.072.32 1.263-1.27 10.982-.79 4.842-1.459 8.9-1.485 9.02L0 43.105h4.161l-.054-.217a.953.953 0 00-.17-.344c-.063-.07-.19-.336-.28-.592-.14-.39-.16-.592-.128-1.255.037-.777 1.7-11.63 1.8-11.741.027-.032.643 3.13 1.366 7.026l1.316 7.084 1.503.02 1.503.02 3.456-7.073c1.9-3.89 3.476-7.085 3.5-7.1.066-.043-1.454 10.451-1.71 11.804-.364 1.932-.39 2.1-.337 2.236.047.121.394.132 4.185.132h4.134v-.194c0-.106-.085-.32-.19-.473-.293-.429-.393-.983-.342-1.89.025-.445.698-4.79 1.52-9.807.811-4.954 1.476-9.049 1.476-9.098 0-.066.57-.09 2.065-.09 1.6 0 2.066-.023 2.066-.1 0-.053-.134-.361-.298-.683-.484-.95-.462-1.251.565-7.783.471-2.996.88-5.51.91-5.587.03-.077.635 2.997 1.36 6.908.717 3.876 1.32 7.092 1.338 7.146.026.074.403.099 1.518.099h1.482l3.447-7.046c1.895-3.876 3.477-7.08 3.516-7.123.04-.044.05.022.025.158-.024.129-.38 2.579-.793 5.445-.412 2.866-.882 5.907-1.043 6.759-.161.852-.27 1.607-.243 1.678.045.117.434.129 4.223.129 4.02 0 4.174-.006 4.174-.148 0-.08-.075-.24-.165-.356-.091-.114-.238-.412-.327-.661-.138-.385-.156-.58-.12-1.283.026-.516.6-4.233 1.519-9.847.812-4.96 1.476-9.072 1.476-9.138 0-.106-.48-.12-4.111-.119-2.262 0-4.152.028-4.202.06-.05.031-1.235 2.331-2.634 5.11-2.037 4.046-2.553 5.013-2.59 4.855-.026-.108-.428-2.364-.892-5.013C38.51 2.364 38.094.153 38.05.1c-.06-.078-1.07-.1-4.558-.1-4.213 0-4.48.008-4.48.138zM62.24 3.674c-1.82.316-3.641 1.275-5.019 2.644-2.187 2.173-3.459 5.603-3.176 8.564.318 3.34 2.628 6.206 5.567 6.906 1.27.302 3.333.178 4.722-.283 2.593-.861 4.802-2.78 6.096-5.294 1.513-2.939 1.646-5.958.375-8.514a7.568 7.568 0 00-4.687-3.914c-.78-.224-2.877-.282-3.879-.109zm18.219.196c-1.698.49-4.386.946-5.568.946-.546 0-.6.015-.678.185-.072.156-.043.261.177.648.486.856.482.903-.799 8.669-.614 3.728-1.117 6.863-1.117 6.967v.189h3.535c3.998 0 3.71.054 3.357-.637-.16-.313-.178-.459-.17-1.377.008-.923.098-1.544.894-6.181.487-2.836.885-5.184.885-5.219 0-.11 1.056-.547 1.43-.593.55-.067.88.086 1.093.504.098.193.178.442.178.552 0 .11-.5 3.039-1.11 6.508-.61 3.47-1.09 6.338-1.067 6.375.023.037 1.63.068 3.572.068h3.532v-.188c0-.103-.072-.348-.16-.545-.358-.805-.34-.992.755-7.478 1.13-6.696 1.129-6.681.695-7.602-.34-.723-.794-1.182-1.516-1.537l-.6-.295-1.117.006c-1 .005-1.183.028-1.752.222-.779.265-1.89.782-2.835 1.32-.39.222-.727.387-.747.367-.02-.02.036-.406.124-.858.193-.99.198-1.144.035-1.207-.165-.062-.114-.072-1.026.191zm34.804-.075c-2.754.242-4.664 1.107-5.331 2.415-.21.411-.235.54-.235 1.185 0 .676.015.745.238 1.059.155.218.42.435.755.618.496.272.548.283 1.313.283.734 0 .836-.02 1.311-.252.658-.321 1.19-.77 1.19-1.001 0-.135-.089-.213-.386-.338-.651-.273-.686-.86-.079-1.309.348-.257.693-.367 1.337-.426 1.535-.142 2.441.616 2.528 2.113.035.598-.245 2.698-.38 2.854-.029.034-.283.006-.563-.061-.706-.169-2.495-.238-3.374-.13-2.68.33-4.816 1.683-5.798 3.671-.456.924-.593 1.463-.647 2.537-.103 2.053.729 3.661 2.277 4.404 1.503.722 3.293.544 5.462-.54l1.132-.567v.31c0 .17.04.468.089.66l.089.351h6.32l.048-.188c.029-.116-.02-.338-.127-.573-.137-.3-.182-.573-.206-1.262-.03-.826.02-1.189.822-5.96.845-5.025.853-5.09.765-5.714-.21-1.475-1.168-2.677-2.732-3.425-.881-.421-1.468-.588-2.523-.716-.757-.093-2.23-.092-3.295.002zm-21.118.43c-.162.11-.33.264-.373.344-.116.216-.578 2.92-.515 3.02.088.141.518.024 1.023-.28.26-.156.6-.325.755-.375.332-.106 4.373-.192 4.372-.092 0 .036-1.965 2.706-4.367 5.932-2.75 3.693-4.397 5.974-4.448 6.158-.045.16-.082.658-.082 1.105 0 .86.097 1.198.392 1.355.102.054 2.499.082 7.136.082h6.983l.163-.178c.136-.15.19-.426.335-1.74.095-.858.151-1.595.124-1.637-.089-.144-.315-.075-.898.273-.819.49-1.166.534-3.996.504l-2.354-.025 4.565-6.197c2.51-3.409 4.651-6.375 4.756-6.592.251-.517.279-1.517.048-1.725-.133-.12-.715-.13-6.735-.13h-6.59l-.294.198zm-29.51 1.642c.557.423.772 1.56.613 3.251-.23 2.454-.952 6.547-1.442 8.171-.138.456-.36 1.053-.493 1.326-.769 1.567-2.367 1.68-2.786.195-.17-.601-.174-2.205-.01-3.47.478-3.68 1.201-7.037 1.813-8.411.21-.474.606-.958.966-1.183.343-.215.97-.158 1.34.121zm52.478 7.28c.045.047-.076.977-.312 2.406l-.384 2.328-.262.22c-.69.582-1.692.83-2.208.547-.479-.263-.597-.564-.593-1.517.006-1.285.403-2.4 1.133-3.175.707-.75 1.122-.942 1.98-.91.315.013.606.058.646.1zm-61.842 9.16c-1.222.317-2.295.527-3.808.743-.61.087-1.134.185-1.167.219-.033.033-.152.593-.266 1.244-.113.651-.226 1.282-.25 1.401l-.043.217h-.977c-.689 0-1 .03-1.053.1-.064.083-.341 1.718-.341 2.014 0 .072.26.097 1.002.097.998 0 1.001 0 .958.178-.024.097-.46 2.61-.97 5.585-.883 5.164-.923 5.449-.894 6.316.027.77.063.976.239 1.356.427.924 1.218 1.502 2.416 1.767.468.104.864.125 1.804.097 1.09-.032 1.276-.06 1.937-.283 1.116-.378 2.453-1.085 2.983-1.579l.218-.203v-1.13c0-.622-.032-1.13-.071-1.13-.04 0-.351.132-.693.293-.675.319-1.39.424-1.803.266-.304-.116-.548-.677-.546-1.26 0-.347 1.463-9.324 1.644-10.095.041-.175.06-.178 1.306-.178 1.135 0 1.269-.014 1.307-.138.071-.228.286-1.622.286-1.855v-.218h-1.178c-.649 0-1.196-.017-1.218-.038-.021-.022.116-.9.305-1.954.19-1.053.328-1.96.307-2.014-.056-.144-.283-.115-1.434.183zm116.477 0c-1.222.317-2.296.527-3.809.743-.609.087-1.133.185-1.166.219-.032.033-.151.593-.265 1.244a99.908 99.908 0 01-.251 1.401l-.044.217h-.988c-.95 0-.992.008-1.064.178-.063.15-.319 1.718-.319 1.956 0 .046.407.077 1 .077h.999l-.046.217c-.026.12-.461 2.633-.966 5.586-.877 5.119-.919 5.41-.89 6.276.026.772.062.975.238 1.356.427.924 1.218 1.502 2.417 1.767.467.104.863.125 1.804.097 1.088-.032 1.275-.06 1.936-.283 1.152-.39 2.412-1.058 2.983-1.582l.219-.2v-1.13c0-.622-.033-1.13-.072-1.13-.039 0-.351.132-.693.293-.675.319-1.39.424-1.801.267-.316-.121-.529-.628-.531-1.265-.002-.387 1.41-9.13 1.629-10.091.04-.175.059-.178 1.302-.178 1.092 0 1.268-.017 1.311-.129.064-.166.285-1.625.285-1.884v-.198h-1.192c-1.164 0-1.192-.003-1.192-.168 0-.093.145-.982.322-1.975.177-.994.3-1.841.273-1.884-.074-.12-.31-.086-1.429.204zm-54.703 3.082c-1.54.412-4.32.9-5.124.9-.76 0-.949.218-.605.699.195.272.406.985.406 1.371 0 .167-.196 1.502-.434 2.966l-1.157 7.083c-.397 2.431-.79 4.9-.875 5.487-.173 1.21-.361 3.794-.288 3.98.042.111.436.125 3.506.125 3.8 0 3.653.02 3.309-.462-.501-.702-.567-1.884-.215-3.84.125-.696.24-1.278.255-1.296.016-.018.381.133.812.334 1.077.504 1.627.637 2.635.637 1.534 0 3.063-.55 4.335-1.562 1.23-.977 2.437-2.66 3.066-4.272.336-.862.738-2.485.903-3.647.172-1.215.134-3.31-.076-4.208-.174-.744-.783-2.024-1.256-2.645-.898-1.175-2.236-1.855-3.65-1.855-1.063 0-2.18.418-3.468 1.297-.364.249-.682.434-.705.41-.023-.022.003-.395.059-.826.095-.747.078-1.046-.06-1.033-.034.003-.652.164-1.373.357zm-80.365-.155c-2.795.3-5.415 1.894-6.99 4.253-1.942 2.907-2.487 6.534-1.402 9.322.894 2.293 2.755 4.042 4.925 4.63.807.217 2.658.234 3.69.033 1.908-.373 3.874-1.447 5.299-2.895 1.417-1.441 2.402-3.222 2.922-5.284.185-.735.21-.99.211-2.175.001-1.13-.026-1.452-.176-2.04-.368-1.451-.985-2.583-1.95-3.583-.991-1.024-2.198-1.74-3.51-2.078-.63-.162-2.282-.262-3.02-.183zm31.78 0c-2.62.281-5.061 1.674-6.676 3.808-.984 1.3-1.846 3.297-2.136 4.945-.174.989-.163 2.575.025 3.473.61 2.92 2.701 5.27 5.32 5.978.808.218 2.659.235 3.69.034 1.911-.373 3.834-1.423 5.28-2.883 1.436-1.45 2.419-3.22 2.941-5.296.187-.745.21-.978.207-2.214-.003-1.23-.026-1.465-.208-2.141-.396-1.468-1.077-2.642-2.11-3.64-.957-.924-2.083-1.563-3.313-1.88-.63-.163-2.282-.263-3.02-.184zm69.521.034c-1.334.178-2.849.767-4.055 1.576-2.184 1.464-3.806 4.02-4.409 6.945-.229 1.114-.19 3.161.079 4.145.474 1.73 1.656 3.484 2.982 4.42 1.484 1.05 3.095 1.443 5.05 1.233 4.494-.483 8.171-3.936 9.18-8.618.199-.928.202-2.788.005-3.706-.613-2.85-2.771-5.138-5.519-5.851-.715-.186-2.442-.261-3.313-.144zm-37.659.083c-2.522.365-4.42 1.63-5.363 3.577-.477.983-.648 1.725-.648 2.809-.001.972.092 1.442.416 2.095.795 1.604 2.288 2.576 5.336 3.474 1.618.477 2.465.972 2.816 1.646.38.73-.162 1.684-1.218 2.148-.872.383-2.274.445-3.196.142-.606-.2-1.123-.684-1.178-1.106-.054-.409.129-.816.453-1.006.347-.204.303-.412-.185-.882-1.476-1.421-3.73-1.228-4.564.392-.274.532-.336 1.47-.142 2.143.44 1.522 2.031 2.628 4.32 3.002 1.069.175 3.309.175 4.303 0 1.894-.335 3.388-1.039 4.517-2.128 1.263-1.219 1.842-2.595 1.838-4.37-.001-1.013-.16-1.73-.56-2.537-.786-1.584-2.298-2.528-5.523-3.447-.696-.199-1.484-.467-1.752-.596-2-.963-1.218-2.81 1.287-3.041 1.723-.16 3.123.907 2.242 1.707-.141.128-.284.232-.318.232-.034 0-.062.068-.062.151 0 .304.819.798 1.782 1.075 1.201.346 2.475-.134 2.94-1.107.227-.476.15-1.526-.153-2.079-.628-1.145-2.122-1.968-4.102-2.258-.899-.132-2.501-.15-3.286-.036zm82.806.032c-3.436.573-5.618 2.818-5.832 5.998-.094 1.41.321 2.63 1.227 3.602.871.935 1.893 1.472 4.263 2.239.833.27 1.704.586 1.935.703.797.403 1.288.992 1.288 1.544 0 .57-.545 1.23-1.313 1.593-.644.304-1.283.412-2.143.362-1.226-.072-2.064-.516-2.253-1.196-.113-.407.1-.922.459-1.106.34-.175.31-.362-.132-.808-.97-.98-2.495-1.293-3.59-.738-1.019.517-1.53 1.724-1.245 2.944.286 1.223.912 1.952 2.217 2.584.992.48 1.827.682 3.253.79 4.818.361 8.486-1.608 9.408-5.052.19-.706.19-2.373.001-3.073-.488-1.812-1.836-3.064-4.252-3.949a30.251 30.251 0 00-1.76-.543c-1.378-.384-1.673-.5-2.156-.852-.469-.34-.655-.716-.606-1.222.05-.518.337-.872.955-1.172 1.298-.632 3.216-.436 3.773.387.275.405.234.612-.198 1.013l-.378.35.341.3c.188.166.617.419.954.561.548.233.691.26 1.367.26.665.001.803-.024 1.163-.21.497-.258.954-.77 1.072-1.201.122-.45.03-1.244-.205-1.753-.543-1.18-2.292-2.134-4.374-2.387-.931-.114-2.46-.099-3.239.032zm-97.426.19c-1.008.316-3.75.797-4.907.86-.93.052-.974.061-.998.232-.014.098.067.367.18.597.447.908.447.914-.31 5.343-1.398 8.181-1.742 10.309-1.69 10.442.049.127.3.137 3.467.137 3.148 0 3.421-.01 3.492-.136.056-.1.025-.223-.118-.465-.274-.465-.362-1.106-.266-1.944.043-.381.433-2.63.865-4.998.744-4.068.801-4.325 1.04-4.696.57-.88 1.528-1.498 2.325-1.498.408 0 .496.029.694.225.296.295.387.754.21 1.061-.164.284-.167.481-.009.611.156.13.873-.056 1.533-.396.562-.29.716-.417 1.076-.894.433-.574.637-1.332.585-2.175-.065-1.063-.446-1.74-1.241-2.204-.339-.198-.433-.215-1.24-.215-.81 0-.907.017-1.312.229-.65.338-1.558 1.29-2.103 2.201-.254.425-.47.762-.483.75-.011-.012.032-.501.096-1.087.065-.587.124-1.315.132-1.619.017-.676.002-.681-1.019-.361zm69.877-.02c-1.147.38-4.183.894-5.288.894-.548 0-.601.015-.68.187-.071.156-.052.24.117.494.112.168.258.537.324.82.148.63.226.086-1.215 8.526-.734 4.301-1.075 6.48-1.028 6.573.065.13.293.137 3.502.118 3.922-.023 3.651.039 3.261-.75-.381-.773-.337-1.246.6-6.415.576-3.18.858-4.563.983-4.816.24-.486 1.042-1.267 1.565-1.524.322-.158.553-.213.9-.213.408 0 .496.029.694.225.297.295.388.754.21 1.061-.164.284-.167.481-.009.611.1.083.211.077.603-.031 1.148-.318 1.861-.88 2.31-1.826.245-.516.262-.608.262-1.382 0-.743-.023-.878-.223-1.302-.262-.557-.518-.844-1.008-1.133-.329-.193-.428-.21-1.232-.21-.843 0-.891.01-1.371.268-.653.352-1.464 1.206-2.055 2.165-.255.415-.472.746-.482.737-.009-.01.039-.531.107-1.16.069-.627.13-1.354.136-1.615.01-.452.001-.474-.188-.487-.109-.008-.467.075-.795.184zm-117.454 1.85c.96.46 1.103 1.81.58 5.474-.625 4.38-1.266 6.939-1.984 7.924-.424.581-1.11.843-1.701.649-1.001-.328-1.166-2.06-.568-5.963.809-5.282 1.564-7.625 2.61-8.097.429-.193.641-.19 1.064.012zm31.677-.057c.369.154.66.491.823.956.242.686.18 2.449-.17 4.812-.732 4.96-1.437 7.397-2.334 8.071-.812.611-1.76.349-2.075-.574-.15-.44-.202-2.166-.094-3.124.295-2.608.986-6.243 1.483-7.807.45-1.413.831-2.03 1.418-2.294.389-.176.6-.184.95-.04zm69.783-.026c.357.134.725.544.877.977.201.573.179 2.308-.05 3.953-.56 4.004-1.199 6.9-1.777 8.053-.421.838-1.041 1.276-1.702 1.202-.469-.052-.734-.251-.977-.733-.474-.94-.225-4.096.673-8.522.627-3.092 1.217-4.483 2.064-4.865.37-.167.578-.182.892-.065zm-19.249 1.58c.16.14.353.43.458.69.168.415.182.565.178 1.95-.004 1.71-.167 2.854-.783 5.519-.482 2.085-.759 2.734-1.431 3.35-.394.36-.758.485-1.42.485-.539 0-1.246-.261-1.246-.462 0-.07.429-2.6.953-5.623.525-3.022.954-5.52.954-5.55 0-.03.258-.178.573-.328.786-.374 1.359-.384 1.764-.032z" fill="#F8F8F8"/></svg>